<?xml version="1.0" encoding="UTF-8"?>
<svg version="1.1" xmlns="http://www.w3.org/2000/svg" width="32" height="32">
<path d="M0 0 C10.56 0 21.12 0 32 0 C32 10.56 32 21.12 32 32 C21.44 32 10.88 32 0 32 C0 21.44 0 10.88 0 0 Z M18 4 C18.33 4.66 18.66 5.32 19 6 C20.65 6 22.3 6 24 6 C24.33 5.34 24.66 4.68 25 4 C22.69 4 20.38 4 18 4 Z M18 9 C15.64686445 9.07271741 13.29166332 9.08370868 10.9375 9.0625 C9.64714844 9.05347656 8.35679688 9.04445313 7.02734375 9.03515625 C6.02832031 9.02355469 5.02929688 9.01195312 4 9 C4.33 9.99 4.66 10.98 5 12 C12.59 12 20.18 12 28 12 C27.67 11.01 27.34 10.02 27 9 C26.01 9.33 25.02 9.66 24 10 C24 9.34 24 8.68 24 8 C20.71069596 7.63314303 20.71069596 7.63314303 18 9 Z M4 15 C4.33 15.99 4.66 16.98 5 18 C12.59 18 20.18 18 28 18 C27.67 17.01 27.34 16.02 27 15 C19.41 15 11.82 15 4 15 Z M4 21 C4.33 21.99 4.66 22.98 5 24 C12.59 24 20.18 24 28 24 C27.67 23.01 27.34 22.02 27 21 C19.41 21 11.82 21 4 21 Z M15 29 C18.3 29 21.6 29 25 29 C24.67 28.34 24.34 27.68 24 27 C20.02958963 26.77942165 18.76687864 27.11656068 15 29 Z M7 28 C11 29 11 29 11 29 Z " fill="#CEA687" transform="translate(0,0)"/>
<path d="M0 0 C1.1859375 0.00257812 2.371875 0.00515625 3.59375 0.0078125 C4.7796875 0.00523438 5.965625 0.00265625 7.1875 0 C10.09375 0.1328125 10.09375 0.1328125 11.09375 1.1328125 C12.75980828 1.1778411 14.42753384 1.17156171 16.09375 1.1328125 C17.41375 1.1328125 18.73375 1.1328125 20.09375 1.1328125 C19.76375 2.7828125 19.43375 4.4328125 19.09375 6.1328125 C18.10375 6.1328125 17.11375 6.1328125 16.09375 6.1328125 C16.09375 5.4728125 16.09375 4.8128125 16.09375 4.1328125 C15.24554687 4.46023437 14.39734375 4.78765625 13.5234375 5.125 C9.89184989 6.19214078 6.99038699 6.33478468 3.21875 6.2578125 C1.49011719 6.23074219 1.49011719 6.23074219 -0.2734375 6.203125 C-1.14226563 6.17992187 -2.01109375 6.15671875 -2.90625 6.1328125 C-3.28843767 4.47666593 -3.62020102 2.80824226 -3.90625 1.1328125 C-2.90625 0.1328125 -2.90625 0.1328125 0 0 Z " fill="#358DD9" transform="translate(7.90625,3.8671875)"/>
<path d="M0 0 C10.56 0 21.12 0 32 0 C32 0.99 32 1.98 32 3 C21.44 3 10.88 3 0 3 C0 2.01 0 1.02 0 0 Z " fill="#BF6952" transform="translate(0,29)"/>
<path d="M0 0 C4.29 0 8.58 0 13 0 C13.33 1.65 13.66 3.3 14 5 C8.62374766 5.84888195 4.34629602 6.0024305 -1 5 C-0.67 3.35 -0.34 1.7 0 0 Z " fill="#FEA530" transform="translate(5,23)"/>
<path d="M0 0 C4.29 0 8.58 0 13 0 C13.33 1.65 13.66 3.3 14 5 C9.38 5 4.76 5 0 5 C0 3.35 0 1.7 0 0 Z " fill="#599039" transform="translate(5,17)"/>
<path d="M0 0 C4.62 0 9.24 0 14 0 C13.67 1.65 13.34 3.3 13 5 C8.71 5 4.42 5 0 5 C0 3.35 0 1.7 0 0 Z " fill="#BD1730" transform="translate(5,11)"/>
<path d="M0 0 C-0.33 1.65 -0.66 3.3 -1 5 C-1.99 5 -2.98 5 -4 5 C-4 4.34 -4 3.68 -4 3 C-5.98 3 -7.96 3 -10 3 C-10 2.34 -10 1.68 -10 1 C-3.375 -1.125 -3.375 -1.125 0 0 Z " fill="#6EA9DC" transform="translate(28,5)"/>
<path d="M0 0 C1.98 0 3.96 0 6 0 C6 0.99 6 1.98 6 3 C4.02 3 2.04 3 0 3 C0 2.01 0 1.02 0 0 Z " fill="#C5D2D3" transform="translate(18,18)"/>
<path d="M0 0 C1.98 0 3.96 0 6 0 C6 0.99 6 1.98 6 3 C4.02 3 2.04 3 0 3 C0 2.01 0 1.02 0 0 Z " fill="#CACAD2" transform="translate(18,12)"/>
<path d="M0 0 C1.65 0 3.3 0 5 0 C5 0.99 5 1.98 5 3 C3.02 3 1.04 3 -1 3 C-0.67 2.01 -0.34 1.02 0 0 Z " fill="#CED5D6" transform="translate(19,24)"/>
<path d="M0 0 C0.99 0 1.98 0 3 0 C3.33 1.65 3.66 3.3 4 5 C3.01 5.33 2.02 5.66 1 6 C0 5 0 5 -0.0625 2.4375 C-0.041875 1.633125 -0.02125 0.82875 0 0 Z " fill="#FC9F35" transform="translate(24,23)"/>
</svg>
